<?xml version="1.0" encoding="UTF-8" standalone="no"?>
<svg width="459px" height="275px" viewBox="0 0 459 275" version="1.1" xmlns="http://www.w3.org/2000/svg" xmlns:xlink="http://www.w3.org/1999/xlink">
    <!-- Generator: Sketch 3.6.1 (26313) - http://www.bohemiancoding.com/sketch -->
    <title>Group 4 Copy 2</title>
    <desc>Created with Sketch.</desc>
    <defs></defs>
    <g id="Page-1" stroke="none" stroke-width="1" fill="none" fill-rule="evenodd">
        <g id="Group-4-Copy-2">
            <g id="Group-3-Copy" transform="translate(149.000000, 0.000000)">
                <path d="M90.7378404,0 L1.85364027,36.5366492 C0.829903016,36.9574656 0,38.1886719 0,39.2963761 L0,177.585019 C0,178.688358 0.840328292,179.253558 1.85364027,178.856552 L90.7378404,144.032558 L94.8432407,144.032558 L183.881219,178.281679 C184.912572,178.678397 185.748649,178.098996 185.748649,176.991406 L185.748649,36.9760363 C185.748649,35.8667202 184.906769,34.6436064 183.881219,34.2491213 L94.8432407,0 L90.7378404,0 Z" id="Shape" fill="#41355C"></path>
                <g id="Group-2" transform="translate(99.702703, 14.153488)" fill="#65C3CD">
                    <path d="M0,0 L76.2432432,29.1395349 L76.2432432,83.255814 L0,54.1162791 L0,0 Z" id="Rectangle-1"></path>
                    <path d="M0,65.772093 L76.2432432,94.9116279 L76.2432432,149.027907 L0,119.888372 L0,65.772093 Z" id="Rectangle-1-Copy"></path>
                </g>
                <g id="Group-2" transform="translate(47.797297, 89.153488) scale(-1, 1) translate(-47.797297, -89.153488) translate(9.297297, 14.153488)" fill="#279390">
                    <path d="M0,0 L76.2432432,29.1395349 L76.2432432,83.255814 L0,54.1162791 L0,0 Z" id="Rectangle-1"></path>
                    <path d="M0,65.772093 L76.2432432,94.9116279 L76.2432432,149.027907 L0,119.888372 L0,65.772093 Z" id="Rectangle-1-Copy"></path>
                </g>
            </g>
            <path d="M30.0800013,274.12 C21.4932917,274.12 14.3333633,271.320028 8.60000134,265.72 C2.86663934,260.119972 1.33514413e-06,253.266707 1.33514413e-06,245.16 L1.33514413e-06,245 C1.33514413e-06,236.893293 2.89330574,230.013362 8.68000134,224.36 C14.4666969,218.706638 21.6532917,215.88 30.2400013,215.88 C38.8267109,215.88 45.9866393,218.679972 51.7200013,224.28 C57.4533633,229.880028 60.3200013,236.733293 60.3200013,244.84 L60.3200013,245 C60.3200013,253.106707 57.4266969,259.986638 51.6400013,265.64 C45.8533057,271.293362 38.6667109,274.12 30.0800013,274.12 L30.0800013,274.12 Z M30.2400013,260.12 C34.4000221,260.12 37.8133213,258.666681 40.4800013,255.76 C43.1466813,252.853319 44.4800013,249.320021 44.4800013,245.16 L44.4800013,245 C44.4800013,240.839979 43.1200149,237.280015 40.4000013,234.32 C37.6799877,231.359985 34.2400221,229.88 30.0800013,229.88 C25.9199805,229.88 22.5200145,231.333319 19.8800013,234.24 C17.2399881,237.146681 15.9200013,240.679979 15.9200013,244.84 L15.9200013,245 C15.9200013,249.160021 17.2666545,252.719985 19.9600013,255.68 C22.6533481,258.640015 26.0799805,260.12 30.2400013,260.12 L30.2400013,260.12 Z M107.160001,274.12 C98.4132907,274.12 91.1466967,271.400027 85.3600011,265.96 C79.5733055,260.519973 76.6800011,253.586709 76.6800011,245.16 L76.6800011,245 C76.6800011,236.786626 79.5466391,229.880028 85.2800011,224.28 C91.0133631,218.679972 98.1999579,215.88 106.840001,215.88 C115.693379,215.88 123.266636,218.599973 129.560001,224.04 L120.440001,235 C116.226647,231.479982 111.720025,229.72 106.920001,229.72 C102.866648,229.72 99.4666815,231.213318 96.7200011,234.2 C93.9733207,237.186682 92.6000011,240.813312 92.6000011,245.08 L92.6000011,245.24 C92.6000011,249.773356 94.0266535,253.493319 96.8800011,256.4 C99.7333487,259.306681 103.373312,260.76 107.800001,260.76 C111.426686,260.76 114.413323,259.986674 116.760001,258.44 L116.760001,251.64 L105.720001,251.64 L105.720001,240.28 L131.480001,240.28 L131.480001,265.48 C124.4933,271.240029 116.386714,274.12 107.160001,274.12 L107.160001,274.12 Z M150.320001,273 L150.320001,217 L171.920001,217 C181.733383,217 189.453306,219.546641 195.080001,224.64 C200.706696,229.733359 203.520001,236.413292 203.520001,244.68 L203.520001,244.84 C203.520001,253.106708 200.666696,259.86664 194.960001,265.12 C189.253306,270.37336 181.466717,273 171.600001,273 L150.320001,273 Z M165.840001,259.24 L172.160001,259.24 C176.853358,259.24 180.599987,258.000012 183.400001,255.52 C186.200015,253.039988 187.600001,249.560022 187.600001,245.08 L187.600001,244.92 C187.600001,240.493311 186.200015,237.026679 183.400001,234.52 C180.599987,232.013321 176.853358,230.76 172.160001,230.76 L165.840001,230.76 L165.840001,259.24 Z M221.720001,273 L221.720001,217 L266.760001,217 L266.760001,230.2 L237.080001,230.2 L237.080001,238.68 L263.960001,238.68 L263.960001,250.92 L237.080001,250.92 L237.080001,259.8 L267.160001,259.8 L267.160001,273 L221.720001,273 Z M285.280001,273 L285.280001,217 L299.760001,217 L322.800001,246.6 L322.800001,217 L338.160001,217 L338.160001,273 L324.560001,273 L300.640001,242.28 L300.640001,273 L285.280001,273 Z" id="OGDENJS" fill="#41355C"></path>
            <path d="M435.6,273.96 C425.039947,273.96 416.293368,270.866698 409.36,264.68 L418,254.36 C423.600028,258.840022 429.653301,261.08 436.16,261.08 C440.426688,261.08 442.56,259.800013 442.56,257.24 L442.56,257.08 C442.56,255.906661 441.920007,254.933337 440.64,254.16 C439.359994,253.386663 436.853352,252.573338 433.12,251.72 C429.70665,250.919996 426.893345,250.133337 424.68,249.36 C422.466656,248.586663 420.306677,247.546673 418.2,246.24 C416.093323,244.933327 414.533339,243.28001 413.52,241.28 C412.506662,239.27999 412,236.893347 412,234.12 L412,233.96 C412,228.679974 413.959981,224.37335 417.88,221.04 C421.80002,217.70665 427.066634,216.04 433.68,216.04 C442.853379,216.04 450.533303,218.519975 456.72,223.48 L448.96,234.44 C443.733307,230.759982 438.506693,228.92 433.28,228.92 C431.466658,228.92 430.080005,229.25333 429.12,229.92 C428.159995,230.58667 427.68,231.453328 427.68,232.52 L427.68,232.68 C427.68,233.960006 428.333327,234.97333 429.64,235.72 C430.946673,236.46667 433.519981,237.266662 437.36,238.12 C444.346702,239.666674 449.573316,241.719987 453.04,244.28 C456.506684,246.840013 458.24,250.599975 458.24,255.56 L458.24,255.72 C458.24,261.373362 456.186687,265.82665 452.08,269.08 C447.973313,272.33335 442.480035,273.96 435.6,273.96 L435.6,273.96 Z" id="Path" fill="#279390"></path>
            <path d="M373.32,273.96 C364.786624,273.96 358.22669,270.813365 353.64,264.52 L363.64,255.08 C366.520015,258.546684 369.426652,260.28 372.36,260.28 C374.386677,260.28 375.959995,259.61334 377.08,258.28 C378.200006,256.94666 378.76,255.000013 378.76,252.44 L378.76,217 L394.2,217 L394.2,252.52 C394.2,259.346701 392.360019,264.599982 388.68,268.28 C384.893315,272.066686 379.773366,273.96 373.32,273.96 L373.32,273.96 Z" id="Path" fill="#279390"></path>
        </g>
    </g>
</svg>