<?xml version="1.0" encoding="UTF-8" standalone="no"?>
<svg width="583px" height="87px" viewBox="0 0 583 87" version="1.1" xmlns="http://www.w3.org/2000/svg" xmlns:xlink="http://www.w3.org/1999/xlink">
    <!-- Generator: Sketch 3.6.1 (26313) - http://www.bohemiancoding.com/sketch -->
    <title>Group 4 Copy 3</title>
    <desc>Created with Sketch.</desc>
    <defs></defs>
    <g id="Page-1" stroke="none" stroke-width="1" fill="none" fill-rule="evenodd">
        <g id="Group-4-Copy-3">
            <g id="Group-3-Copy">
                <path d="M43.9054066,0 L1.84456626,17.3667578 C0.825840445,17.7873858 0,19.028038 0,20.1234629 L0,85.288165 C0,86.3900232 0.83786359,86.9535216 1.85851711,86.551852 L43.9054066,70.0046512 L45.8918907,70.0046512 L88.0164291,86.2805864 C89.0447553,86.6779076 89.8783784,86.1021242 89.8783784,84.9990679 L89.8783784,18.9962809 C89.8783784,17.8911967 89.0389675,16.6710201 88.0164291,16.2759352 L45.8918907,0 L43.9054066,0 Z" id="Shape" fill="#41355C"></path>
                <g id="Group-2" transform="translate(48.243243, 6.879070)" fill="#65C3CD">
                    <path d="M0,0 L36.8918919,14.1627907 L36.8918919,40.4651163 L0,26.3023256 L0,0 Z" id="Rectangle-1"></path>
                    <path d="M0,31.9674419 L36.8918919,46.1302326 L36.8918919,72.4325581 L0,58.2697674 L0,31.9674419 Z" id="Rectangle-1-Copy"></path>
                </g>
                <g id="Group-2" transform="translate(23.256757, 43.379070) scale(-1, 1) translate(-23.256757, -43.379070) translate(4.756757, 6.879070)" fill="#279390">
                    <path d="M-7.10542736e-15,0 L36.8918919,14.1627907 L36.8918919,40.4651163 L-7.10542736e-15,26.3023256 L-7.10542736e-15,0 Z" id="Rectangle-1"></path>
                    <path d="M-7.10542736e-15,31.9674419 L36.8918919,46.1302326 L36.8918919,72.4325581 L-7.10542736e-15,58.2697674 L-7.10542736e-15,31.9674419 Z" id="Rectangle-1-Copy"></path>
                </g>
            </g>
            <path d="M154.080001,73.12 C145.493292,73.12 138.333363,70.320028 132.600001,64.72 C126.866639,59.119972 124.000001,52.2667072 124.000001,44.16 L124.000001,44 C124.000001,35.8932928 126.893306,29.0133616 132.680001,23.36 C138.466697,17.7066384 145.653292,14.88 154.240001,14.88 C162.826711,14.88 169.986639,17.679972 175.720001,23.28 C181.453363,28.880028 184.320001,35.7332928 184.320001,43.84 L184.320001,44 C184.320001,52.1067072 181.426697,58.9866384 175.640001,64.64 C169.853306,70.2933616 162.666711,73.12 154.080001,73.12 L154.080001,73.12 Z M154.240001,59.12 C158.400022,59.12 161.813321,57.6666812 164.480001,54.76 C167.146681,51.8533188 168.480001,48.3200208 168.480001,44.16 L168.480001,44 C168.480001,39.8399792 167.120015,36.2800148 164.400001,33.32 C161.679988,30.3599852 158.240022,28.88 154.080001,28.88 C149.919981,28.88 146.520015,30.3333188 143.880001,33.24 C141.239988,36.1466812 139.920001,39.6799792 139.920001,43.84 L139.920001,44 C139.920001,48.1600208 141.266655,51.7199852 143.960001,54.68 C146.653348,57.6400148 150.079981,59.12 154.240001,59.12 L154.240001,59.12 Z M231.160001,73.12 C222.413291,73.12 215.146697,70.4000272 209.360001,64.96 C203.573306,59.5199728 200.680001,52.5867088 200.680001,44.16 L200.680001,44 C200.680001,35.7866256 203.546639,28.880028 209.280001,23.28 C215.013363,17.679972 222.199958,14.88 230.840001,14.88 C239.693379,14.88 247.266636,17.5999728 253.560001,23.04 L244.440001,34 C240.226647,30.4799824 235.720025,28.72 230.920001,28.72 C226.866648,28.72 223.466682,30.2133184 220.720001,33.2 C217.973321,36.1866816 216.600001,39.813312 216.600001,44.08 L216.600001,44.24 C216.600001,48.773356 218.026654,52.4933188 220.880001,55.4 C223.733349,58.3066812 227.373312,59.76 231.800001,59.76 C235.426686,59.76 238.413323,58.9866744 240.760001,57.44 L240.760001,50.64 L229.720001,50.64 L229.720001,39.28 L255.480001,39.28 L255.480001,64.48 C248.4933,70.2400288 240.386714,73.12 231.160001,73.12 L231.160001,73.12 Z M274.320001,72 L274.320001,16 L295.920001,16 C305.733383,16 313.453306,18.5466412 319.080001,23.64 C324.706696,28.7333588 327.520001,35.413292 327.520001,43.68 L327.520001,43.84 C327.520001,52.106708 324.666696,58.8666404 318.960001,64.12 C313.253306,69.3733596 305.466717,72 295.600001,72 L274.320001,72 Z M289.840001,58.24 L296.160001,58.24 C300.853358,58.24 304.599987,57.0000124 307.400001,54.52 C310.200015,52.0399876 311.600001,48.5600224 311.600001,44.08 L311.600001,43.92 C311.600001,39.4933112 310.200015,36.0266792 307.400001,33.52 C304.599987,31.0133208 300.853358,29.76 296.160001,29.76 L289.840001,29.76 L289.840001,58.24 Z M345.720001,72 L345.720001,16 L390.760001,16 L390.760001,29.2 L361.080001,29.2 L361.080001,37.68 L387.960001,37.68 L387.960001,49.92 L361.080001,49.92 L361.080001,58.8 L391.160001,58.8 L391.160001,72 L345.720001,72 Z M409.280001,72 L409.280001,16 L423.760001,16 L446.800001,45.6 L446.800001,16 L462.160001,16 L462.160001,72 L448.560001,72 L424.640001,41.28 L424.640001,72 L409.280001,72 Z" id="OGDENJS" fill="#41355C"></path>
            <path d="M559.6,72.96 C549.039947,72.96 540.293368,69.8666976 533.36,63.68 L542,53.36 C547.600028,57.8400224 553.653301,60.08 560.16,60.08 C564.426688,60.08 566.56,58.8000128 566.56,56.24 L566.56,56.08 C566.56,54.9066608 565.920007,53.9333372 564.64,53.16 C563.359994,52.3866628 560.853352,51.5733376 557.12,50.72 C553.70665,49.919996 550.893345,49.1333372 548.68,48.36 C546.466656,47.5866628 544.306677,46.5466732 542.2,45.24 C540.093323,43.9333268 538.533339,42.28001 537.52,40.28 C536.506662,38.27999 536,35.8933472 536,33.12 L536,32.96 C536,27.6799736 537.959981,23.37335 541.88,20.04 C545.80002,16.70665 551.066634,15.04 557.68,15.04 C566.853379,15.04 574.533303,17.5199752 580.72,22.48 L572.96,33.44 C567.733307,29.7599816 562.506693,27.92 557.28,27.92 C555.466658,27.92 554.080005,28.25333 553.12,28.92 C552.159995,29.58667 551.68,30.453328 551.68,31.52 L551.68,31.68 C551.68,32.9600064 552.333327,33.9733296 553.64,34.72 C554.946673,35.4666704 557.519981,36.2666624 561.36,37.12 C568.346702,38.6666744 573.573316,40.7199872 577.04,43.28 C580.506684,45.8400128 582.24,49.5999752 582.24,54.56 L582.24,54.72 C582.24,60.3733616 580.186687,64.8266504 576.08,68.08 C571.973313,71.3333496 566.480035,72.96 559.6,72.96 L559.6,72.96 Z" id="Path" fill="#279390"></path>
            <path d="M497.32,72.96 C488.786624,72.96 482.22669,69.8133648 477.64,63.52 L487.64,54.08 C490.520015,57.546684 493.426652,59.28 496.36,59.28 C498.386677,59.28 499.959995,58.61334 501.08,57.28 C502.200006,55.94666 502.76,54.0000128 502.76,51.44 L502.76,16 L518.2,16 L518.2,51.52 C518.2,58.3467008 516.360019,63.5999816 512.68,67.28 C508.893315,71.0666856 503.773366,72.96 497.32,72.96 L497.32,72.96 Z" id="Path" fill="#279390"></path>
        </g>
    </g>
</svg>