<?xml version="1.0" standalone="no"?>
<!DOCTYPE svg PUBLIC "-//W3C//DTD SVG 20010904//EN"
 "http://www.w3.org/TR/2001/REC-SVG-20010904/DTD/svg10.dtd">
<svg version="1.0" xmlns="http://www.w3.org/2000/svg"
 width="372.000000pt" height="372.000000pt" viewBox="0 0 372.000000 372.000000"
 preserveAspectRatio="xMidYMid meet">
<metadata>
Created by potrace 1.11, written by Peter Selinger 2001-2013
</metadata>
<g transform="translate(0.000000,372.000000) scale(0.100000,-0.100000)"
fill="#000000" stroke="none">
<path d="M921 3281 c-523 -215 -900 -376 -908 -386 -19 -27 -20 -2797 0 -2813
10 -9 235 76 906 338 697 273 903 350 937 350 35 0 245 -77 929 -340 486 -187
893 -340 905 -340 l20 0 0 1425 0 1425 -22 14 c-13 8 -422 168 -910 355 -625
240 -898 341 -925 340 -26 0 -315 -114 -932 -368z m799 -458 l0 -538 -746
-285 c-411 -157 -753 -286 -760 -288 -12 -3 -14 81 -12 533 l3 537 750 288
c413 158 753 288 758 289 4 0 7 -241 7 -536z m1053 247 l747 -285 0 -542 0
-543 -47 19 c-27 10 -363 139 -748 286 -385 147 -708 271 -717 276 -17 9 -18
45 -18 545 0 513 1 535 18 532 10 -2 354 -131 765 -288z m-67 -1291 c390 -149
733 -280 762 -291 l52 -19 0 -540 0 -540 -22 7 c-12 4 -356 134 -763 290
l-740 283 -3 540 c-1 298 0 541 2 541 2 0 323 -122 712 -271z m-988 -275 l-3
-535 -755 -289 -755 -288 -3 531 c-1 292 2 535 6 539 10 10 1480 576 1500 577
10 1 12 -109 10 -535z"/>
</g>
</svg>
